/* XPM */
static char *openETCS_logo[] = {
/* columns rows colors chars-per-pixel */
"250 73 64 1 ",
"  c gray50",
". c #3F3FBF",
"X c #5F5F9F",
"o c #6F6F8F",
"O c #777787",
"+ c #7C7C83",
"@ c #74748B",
"# c #676797",
"$ c #6C6C93",
"% c #63639B",
"& c #4F4FAF",
"* c #5757A7",
"= c #5C5CA3",
"- c #5353AB",
"; c #4747B7",
": c #4B4BB3",
"> c #4343BB",
", c #1F1FDF",
"< c #2F2FCF",
"1 c #3737C7",
"2 c #3C3CC3",
"3 c #3333CB",
"4 c #2727D7",
"5 c #2C2CD3",
"6 c #2424DB",
"7 c #0F0FEF",
"8 c #1717E7",
"9 c #1B1BE4",
"0 c #1313EB",
"q c #0707F7",
"w c #0B0BF3",
"e c #0000FF",
"r c #0B0BFF",
"t c #1414FF",
"y c #1C1CFF",
"u c #2323FF",
"i c #2B2BFF",
"p c #3636FF",
"a c #3C3CFF",
"s c #4444FF",
"d c #4C4CFF",
"f c #5454FF",
"g c #5D5DFF",
"h c #6464FF",
"j c #6C6CFF",
"k c #7373FF",
"l c #7C7CFF",
"z c #8484FF",
"x c #8D8DFF",
"c c #9494FF",
"v c #9C9CFF",
"b c #A5A5FF",
"n c #ABABFF",
"m c #B4B4FF",
"M c #BCBCFF",
"N c #C3C3FF",
"B c #CDCDFF",
"V c #D3D3FF",
"C c #DCDCFF",
"Z c #E3E3FF",
"A c #ECECFF",
"S c #F4F4FF",
"D c #FFFFFF",
"F c None",
/* pixels */
"FFFFFFFFFFFFFFFFFFFFFFFFFFFFFFFFFFFFFFFFFFFFFFFFFFFFFFFFFFFFFFFFFFFFFFFFFFFFFFFFFFFFFFFFFFFFFFFFFFFFFFFFFFFFFFFFFFFFFFFFFFFFFFFFFFFFFFFFFFFFFFFFFFFFFFFFFFFFFFFFFFFFFFFFFFFFFFFFFFFFFFFFFFFFFFFFFFFFFFFeeeeeeFFFFFFFFFFFFFFFFFFFFFFFFFeeeeeeeFFFFFFFFFFFFF",
"FFFFFFFFFFFFFFFFFFFFFFFFFFFFFFFFFFFFFFFFFFFFFFFFFFFFFFFFFFFFFFFFFFFFFFFFFFFFFFFFFFFFFFFFFFFFFFFFFFFFFFFFFFFFFFFFFFFFFFFFFFFFeeeeeeeeeeeeeeeeeeeeeeeeeeeeeeeeeeeeeeeeeeeeeeeeeeeeeeeeeeeeeeFFFFFFFFFFeeeeeeeeeeeeFFFFFFFFFFFFFFFFFFFeeeeeeeeeeeeeFFFFFFFFFF",
"FFFFFFFFFFFFFFFFFFFFFFFFFFFFFFFFFFFFFFFFFFFFFFFFFFFFFFFFFFFFFFFFFFFFFFFFFFFFFFFFFFFFFFFFFFFFFFFFFFFFFFFFFFFFFFFFFFFFFFFFFFFeeeeeeeeeeeeeeeeeeeeeeeeeeeeeeeeeeeeeeeeeeeeeeeeeeeeeeeeeeeeeeeFFFFFFFeeeeeeeeeeeeeeeeeFFFFFFFFFFFFFFFeeeeeeeeeeeeeeeeeFFFFFFFF",
"FFFFFFFFFFFFFFFFFFFFFFFFFFFFFFFFFFFFFFFFFFFFFFFFFFFFFFFFFFFFFFFFFFFFFFFFFFFFFFFFFFFFFFFFFFFFFFFFFFFFFFFFFFFFFFFFFFFFFFFFFFFeeeeeeeeeeeeeeeeeeeeeeeeeeeeeeeeeeeeeeeeeeeeeeeeeeeeeeeeeeeeeew   FFFeeeeeeeeeeeeeeeeee0FFFFFFFFFFFFFeeeeeeeeeteeeeeeeewFFFFFFF",
"FFFFFFFFFFFFFFFFFFFFFFFFFFFFFFFFFFFFFFFFFFFFFFFFFFFFFFFFFFFFFFFFFFFFFFFFFFFFFFFFFFFFFFFFFFFFFFFFFFFFFFFFFFFFFFFFFFFFFFFFFFFeeeeappppappppppappppppappeeeweeeuppppppappppapppppappappppeee6   FFeeeeeesbBADDANkyeeee6FFFFFFFFFFFeeeeepzmADDDABxueeee0FFFFFF",
"FFFFFFFFFFFFFFFFFFFFFFFFFFFFFFFFFFFFFFFFFFFFFFFFFFFFFFFFFFFFFFFFFFFFFFFFFFFFFFFFFFFFFFFFFFFFFFFFFFFFFFFFFFFFFFFFFFFFFFFFFFFeeeiDDDDDDDDDDDDDDDDDDDDDDeee0eeeNDDDDDDDDDDDDDDDDDDDDDDDDCeee3   FeeeeehZDDDDDDDDDSjeeee>+FFFFFFFFeeeeunDDDDDDDDDDDceeee2 FFFF",
"FFFFFFFFFFFFFFFFFFFFFFFFFFFFFFFFFFFFFFFFFFFFFFFFFFFFFFFFFFFFFFFFFFFFFFFFFFFFFFFFFFFFFFFFFFFFFFFFFFFFFFFFFFFFFFFFFFFFFFFFFFFeeedDDDDDDDDDDDDDDDDDDDDDCeee0eeeZDDDDDDDDDDDDDDDDDDDDDDDDmeee>  %eeeetmDDDDDDDDDDDDDxeeeqo FFFFFFeeeeaADDDDDDDDDDDDDneeeqo FFF",
"FFFFFFFFFFFFFFFFFFFFFFFFFFFFFFFFFFFFFFFFFFFFFFFFFFFFFFFFFFFFFFFFFFFFFFFFFFFFFFFFFFFFFFFFFFFFFFFFFFFFFFFFFFFFFFFFFFFFFFFFFFFeeehDDDDDDDDDDDDDDDDDDDDDMeee0eeeDDDDDDDDDDDDDDDDDDDDDDDDDveee- oweeeiADDDDDDDDDDDDDDDfeee3 FFFFFeeeedSDDDDDDDDDDDDDDDheee> FFF",
"FFFFFFFFFFFFFFFFFFFFFFFFFFFFFFFFFFFFFFFFFFFFFFFFFFFFFFFFFFFFFFFFFFFFFFFFFFFFFFFFFFFFFFFFFFFFFFFFFFFFFFFFFFFFFFFFFFFFFFFFFFFeeexDDDDDDDDDDDDDDDDDDDDDveeeweeuDDDDDDDDDDDDDDDDDDDDDDDDDleee% 6eeeyZDDDDDDDDDDDDDDDDZreew+ FFFeeeeyADDDDDDDDDDDDDDDDZeee9  FF",
"FFFFFFFFFFFFFFFFFFFFFFFFFFFFFFFFFFFFFFFFFFFFFFFFFFFFFFFFFFFFFFFFFFFFFFFFFFFFFFFFFFFFFFFFFFFFFFFFFFFFFFFFFFFFFFFFFFFFFFFFFFFeeenDDDDDDDDDDDDDDDDDDDDDleeeeeesDDDDDDDDDDDDDDDDDDDDDDDDDgeee@-eeerBDDDDDDDDDDDDDDDDDDkeee& FFFeeeeMDDDDDDVbNSDDDDDDDDseeeo FF",
"FFFFFFFFFFFFFFFFFFFFFFFFFFFFFFFFFFFFFFFFFFFFFFFFFFFFFFFFFFFFFFFFFFFFFFFFFFFFFFFFFFFFFFFFFFFFFFFFFFFFFFFFFFFFFFFFFFFFFFFFFFeeeeBDDDDDDDDDDDDDDDDDDDDDgeeeeeehDDDDDDDDDDDDDDDDDDDDDDDDDaeeqOweeebDDDDDDDDDDDDDDDDDDDVeee6+ FFeeehDDDDDmyeeeegDDDDDDDxeee*  F",
"FFFFFFFFFFFFFFFFFFFFFFFFFFFFFFFFFFFFFFFFFFFFFFFFFFFFFFFFFFFFFFFFFFFFFFFFFFFFFFFFFFFFFFFFFFFFFFFFFFFFFFFFFFFFFFFFFFFFFFFFFFeeeeADDDDDZCCZZCCCZCZCCCZCaeeeeeezDDDDDDDDDDDDDDDDDDDDDDDDDyee02eeeaDDDDDDDDDDADDDDDDDDDDueeq  FeeeeBDDDDveeeeeeesSDDDDDmeee;  F",
"FFFFFFFFFFFFFFFFFFFFFFFFFFFFFFFFFFFFFFFFFFFFFFFFFFFFFFFFFFFFFFFFFFFFFFFFFFFFFFFFFFFFFFFFFFFFFFFFFFFFFFFFFFFFFFFFFFFFFFFFFFeeerDDDDDAeeeeeeeeeeeeeeeeeeeweeebDDDDDDDDDDDDDDDDDDDDDDDDDeee6qeeeVDDDDDDDmsrerdVDDDDDDDheee%+-eeeaDDDDCreeeeeeeezDDDDDVeee2+ F",
"FFFFFFFFFFFFFFFFFFFFFFFFFFFFFFFFFFFFFFFFFFFFFFFFFFFFFFFFFFFFFFFFFFFFFFFFFFFFFFFFFFFFFFFFFFFFFFFFFFFFFFFFFFFFFFFFFFFFFFFFFFeeeiDDDDDBeeeeeeeeeeeeeeeeeeeweeehcxcxxcxxxDDDDDDcxcxxcxxxleee6eeehDDDDDDDfeeeeeeevDDDDDDveee; >eeebDDDDheee9;3eeeiDDDDDSeee4  F",
"FFFFFFFFFFFFFFFeeeeeeFFFFFFFFFFFFFFFFFFFFFFFFFFFFeeeeFFFFFFFFFFFFFFFFFFFFFeeeeeeFFFFFFFFFFFFFFFFFFFFFFFFFFFFeeeeFFFFFFFFFFeeedDDDDDneeeeeeeeeeeeeeeeeee0eeeeeeeeeeeerDDDDDZeeeeeeeeeeeeeweeeVDDDDDSseeeeeeeeeMDDDDDVeee1 4eeeZDDDDueeq@ +6eeeVDDDDDeee4  F",
"FFFFFFFFFFFFFeeeeeeeeeeeFFFFFFFFFFeeeeeeeeeeeeFeeeeeeeeFFFFFFFFFFFFFFFFeeeeeeeeeeeeFFFFFFFFFeeeeeeeeeeeeFFeeeeeeeeFFFFFFFFeeehDDDDDxeee63333333333333338eeeeeeeeeeeeuDDDDDBeeeeeeeeeeeeeeeeaDDDDDDjeeee04weeeiDDDDDDeee6 weeyDDDDDeee9   ;eeenCNmcleee4   ",
"FFFFFFFFFFFeeeeeeeeeeeeeeeFFFFFFFFeeeeeeeeeeeeeeeeeeeeeeeFFFFFFFFFFFFeeeeeeeeeeeeeeeFFFFFFFFeeeeeeeeeeeeeeeeeeeeeeeeFFFFFFeeexDDDDDheee#              +0eeeeeeeeeeeedDDDDDneeeeeeeeeeeeeeeenDDDDDNeeee>+ O0eeemDDDDNree0oeeefDDDDDueew+  2eeeeeeeeeeee4   ",
"FFFFFFFFFeeeeeeeeereeeeeee9FFFFFFFeeeeeeeeeeeeeeeeeeeeeee:FFFFFFFFFFeeeeeeeeyreeeeeee9FFFFFFeeeeeeeeeeeeeeeeeereeeee>FFFFFeeenDDDDDdeeeO               X==*=====:eeehDDDDDxeee;=======*qeerDDDDDDaeee2    -eeejDBkyeeeeq#eeelDDDDDfeee0;OFeeeeeeeeeeee6   ",
"FFFFFFFFeeeeeednZDDSBzteeee<FFFFFeeeeasssieeeeeeaNSDBaeeewO FFFFFFFeeeeesbCDDDSNkreeee;FFFFFeeeusddpeeeeeeegNSDCfeeew+FFFeeeeBDDDDDieew    FFFFFFFFFFFFFFF      XeeezDDDDDheee$       #eeefDDDDDNeee0O    Oeeeuueeeeeeee-eeecDDDDDveeeeeqeeeeeeeeeeeeq3   ",
"FFFFFFFeeeeeiVDDDDDDDDSgeeee%+FFFeeeeADDDkeeeeezDDDDDDpeee> FFFFFFeeeeyNDDDDDDDDDAdeeew@FFFFeeebDDDmeeeeerMDDDDDDaeee- FFeeeeZDDDDDree9@@@#FFFFFFFFFFFFFFF      ;eeenDDDDDdeee+       >eeevDDDDDgeee&    FFeeeeeeeeeeq<=*eeebDDDDDDxeeeeeeeee63>:-%$O     ",
"FFFFFFFeeeegSDDDDDDDDDDDheee9  FFeeerDDDDfeeeelDDDDDDDCeeew  FFFFeeeesADDDDDDDDDDDSaeee3 FFFeeeNDDDceeeerMDDDDDDDNeee4  FeeerDDDDDAeeeeeeeeeeeeeeeeeeeFFFFFFFFFFeeeeNDDDDDieew   FFFFFeeeeZDDDDDreew+   FFFeeeeeeeq4-+  =eeecDDDDDDDmseeeeeee9%           ",
"FFFFFFeeeedDDDDDDDDDDDDDSueee&  FeeeiDDDDpeeeaDDDDDDDDDdeee%  FFeeeeaDDDDDDDDDDDDDDCreeeO FeeeeZDDDleeeevDDDDDDDDDueew   eeeuDDDDDBeeeeeeeeeeeeeeeeeeeFFFFFFFFFFeeeeADDDDDree,   FFFFFeeeiDDDDDMeee<    FFFeeeee6&+     %eeezDDDDDDDDDVhreeeeee3+        F",
"FFFFFeeeesSDDDDDDDDDDDDDDneee6  FeeedDDDDBjrrCDDDDDDDDDmeee>  FeeeeuSDDDDDVzvZDDDDDDkeee; +eeeeDDDDzeeefDDDDDDDDDDdeee@  eeesDDDDDneeeeeeeeeeeeeeeeee4FFFFFFFFFFeeeeDDDDDAeee<   FFFFFeeehDDDDDzeee-   FFFFFee>@        $eeefDDDDDDDDDDDSvueeeeewFFFFFFFFF",
"FFFFFeeerZDDDDDDSCDDDDDDDDieee@ %eeehDDDDDDDVDDDDDDDDDDAeee6  %eeeeMDDDDmpeeeefDDDDDCeee6  qeeyDDDDDZxsADDDDDDDDDDkeee% oeeehDDDDDMghghghhghghghgpeee-   FFFFFFFeeeuDDDDDBeee2   FFFFFeeevDDDDDdeee@   FFFFFFF        FFFeeetDDDDDDDDDDDDDDbyeeee0FFFFFFFF",
"FFFFeeeevDDDDDmfrepcDDDDDDzeee: =eeexDDDDDDDDCxcADDDDDDDieew+ 3eeehDDDDBreeeeeelDDDDDieeq+ eeesDDDDDDDDDDDDDDDDDDDxeee% %eeezDDDDDDDDDDDDDDDDDDDDkeee%   FFFFFFFeeedDDDDDneee:   FFFFeeeeNDDDDDyee0+   FFFFFFFF    FFFFFFeeeeMDDDDDDDDDDDDDDSkeeee<FFFFFFF",
"FFFFeeepDDDDDveeeeeezDDDDDVeee3 ;eeenDDDDDDAaeeerlDDDDDDgeeeO@qeerADDDAyeeeeeeeeBDDDDheee#@eeegDDDDDDDCzpfvSDDDDDDxeee= &eeenDDDDDDDDDDDDDDDDDDDDfeee@   FFFFFFFeeehDDDDDxeee=   FFFFeeeeSDDDDAeee4   FFFFFFFFF FFFFFFFFFFeeeaDDDDDDDDDDDDDDDDceeee&FFFFFF",
"FFFeeeenDDDDmreeeeeeeCDDDDDree9 2eeeBDDDDDSpeeeeeeNDDDDDkeee$>eeehDDDDgeeew;5eeezDDDDceee*%eeelDDDDDDmeeeeegDDDDDDxeee= >eeeNDDDDDDDDDDDDDDDDDDDDaeew    FFFFFFFeeezDDDDDheee$   FFFFeeeyDDDDDBeee2   FFFFFFFFFFFFFFFFFFFFeeeecDDDDDDDDDDDDDDDDheee0 FFFFF",
"FFFeeeyDDDDSreeew0eeedDDDDDpeeq 5eeeZDDDDDgeeeeeeeiDDDDDxeee=9eeeCDDDAeeee% oeeeaDDDDmeee;-eeebDDDDDBreeeeeevDDDDDzeee% 3eeeZDDDDDDDDDDDDDDDDDDDDree0   FFFFFFFFeeebDDDDDdeee+   FFFFeeesDDDDDbeee&   FFFFFFFFFFFFFFFFFFFFFeeeebDDDDDDDDDDDDDDDDpeee% FFFF",
"FFFeeezDDDDveee0@OweeyDDDDDfeee+9eeeDDDDDCeeee>0eeeVDDDDveee:eeesDDDDzeee2   eeerDDDDBeee.>eeeMDDDDDpeeeeeeesDDDDDheee$ 6eerDDDDDDDDDDDDDDDDDDDDSeee6   FFFFFFFFeeeNDDDDDieew   FFFFFeeejDDDDDxeee%   FFFFFFFFFFFFFFFFFFFFFeeeeexDDDDDDDDDDDDDDDbeee<+FFFF",
"FFeeeeVDDDDieee#  4eeeZDDDDgeeeOweeiDDDDDkeee2 ;eeenDDDDveee3eeexDDDDseee$  FeeerDDDDCeee13eeeCDDDDBeeew#0eetDDDDDfeeeO 0eeuDDDDDDDDDDDDDDDDDDDDVeee3   FFFFFFFeeeeZDDDDDree9   FFFFFeeezDDDDDjeee#   FFFFFFFFFFFFFFFFFFFFFFeeeeepBDDDDDDDDDDDDDDteew+ FFF",
"FFeeeuDDDDNeee9   >eeemDDDDheeeoeeedDDDDDreee@+%eeelDDDDbeee9eeeCDDDSreeewwqeeeerDDDDCeee36eeeDDDDDheee& 4eeeDDDDDseew  eeesDDDDDMpppppapppaapppieee;   FFFFFFFeeeeDDDDDAeee<   FFFFFeeevDDDDDfeeeO   FFFFFeFFFFFFFFFFFFFFFFFweeeeedMDDDDDDDDDDDDfeeeO FFF",
"FFeeejDDDDzeee-   :eeenDDDDjeee%eeehDDDDBeee3  oeeejDDDDbeeeqeeuDDDDNeeeeeeeeeeeeDDDDCeee20eeyDDDDDteewO 6eeeDDDDDuee0 oeeehDDDDDxeeeeeeeeeeeeeeeeee-   FFFFFFFeeeuDDDDDBeee2   FFFFFeeemDDDDDaeew   FFFFFFeeeFFFFFFFFFFFFFFFF9eeeeeepbDDDDDDDDDDleee#  FF",
"FFeeebDDDDfeeeo   >eeemDDDDgeee*eeexDDDDveee&  #eeelDDDDceeeeeefDDDDzeeeeeeeeeeeeDDDDVeee2qeeaDDDDAeee4  9eetDDDDDeee4 %eeezDDDDDjeeeeeeeeeeeeeeeeee%   FFFFFFFeeesDDDDDneee:   FFFFeeeeBDDDDDpeew   FFFFFeeeeeFFFFFFFFFFFFFFFF&7eeeeeeunDDDDDDDDveee-  FF",
"FeeeeVDDDDueew    <eeeBDDDDdeee:eeebDDDDjeee$  %eeexDDDDkeeeeeezDDDDkppppappppapaDDDDBeee2eeegDDDDmeee>  0eeuDDDDZeee3 &eeebDDDDDdeeeqqqqqqqqqqqqqqq@   FFFFFFFeeehDDDDDxeee=   FFFFeeeeVDDDDDuee0   FFFFFeeeeeeeFFFFFFFFFFFFFFFo2weeeeeezDDDDDDDneee:  FF",
"FeeeeDDDDAeee6    weeeVDDDDpeew2eeeNDDDDaeee+  *eeevDDDDheeeeeenDDDDDDDDDDDDDDDDDDDDDneee2eeelDDDDxeee*  eeeaDDDDMeee> >eeeNDDDDDpeew                   FFFFFFFeeezDDDDDjeee$   FFFFeeeeVDDDDDyee0   FFFFFeeeeeeeeeFFFFFFFFeeeeeee%-0eeeeezDDDDDDbeee&  FF",
"FeeeuDDDDBeee2   +eeeeADDDDree05eeeADDDDyee9   ;eeenDDDDseeeeeeCDDDDDDDDDDDDDDDDDDDDDceee2eeevDDDDgeeeo @eeegDDDDbeee- 3eeeZDDDDDree9                  FFFFFFFFeeebDDDDDdeee+   FFFFeeeeCDDDDDyee0   FFFFeeeeseeeeeeeeeeeeeeeeeeeeF  *9eeerSDDDDDveee*  FF",
"FeeeaDDDDMeee>    eeeyDDDDZeee<9eerDDDDDree6   <eeeCDDDDueeqeeeSDDDSBVBVBVBBBVBBBVBVBheee3eeemDDDDpeeq  %eeelDDDDzeee% 6eeeDDDDDSeee<                  FFFFFFFFeeeNDDDDDieew    FFFFeeeeCDDDDDiee7   FFFFeeeuDVdeeeeeeeeeeeeeeeeeeFF  O6eeebDDDDDxeee%  FF",
"FeeefDDDDmeee:   oeeedDDDDmeee>weeuDDDDDeee6  +0eerDDDDSeeeweerDDDDVeeeeeeeeeeeeeeeeeeeee<eeeCDDDDtee0  &eeevDDDDheee@ 0eeuDDDDDVeee2   FFFFFFFFFFFFFFFFFFFFFFeeeeZDDDDDree9   FFFFFeeeeVDDDDDseee+  FFFeeeekDDDBaeeeqeeeeeeeereee%  FF=eeekDDDDDjeee#  FF",
"FeeehDDDDbeee-   FeeelDDDDzeee*eeesDDDDSeee<  OqeeaDDDDBeeeweeyDDDDCeeeeeeeeeeeeeeeeeeeeq6eeeSDDDSeee6  >eeeMDDDDseeq +eeesDDDDDmeee;   FFFFFFFFFFFFFFFFFFFFFFeeeeDDDDDAeee<   FFFFFFeeeMDDDDDkeee%  FFFeeerZDDDDveeeweervmBADxeee=  FFFeeehDDDDDseee+  FF",
"FeeekDDDDveee&   0eeenDDDDseee%eeehDDDDSeee6  :eeekDDDDveeeweeyDDDDCeeeeeeeeeeeeeeeeeeee70eeyDDDDVeee3  3eeeCDDDDyee0 @eeehDDDDDceee=   FFFFFFFFFFFFFFFFFFFFFFeeeuDDDDDBeee2   FFFFFFeeenDDDDDneee<+ FFeeeekDDDDDseeeweeuDDDDDbeee:  FFFeeejDDDDDree0   FF",
"FeeehDDDDNeee2  +eeerADDDAeee9=eeezDDDDDieew+ 9eeeBDDDDgeee0eeyDDDDCeee82222342222222222;qeeaDDDDmeee>  6eeeDDDDDeee6 %eeezDDDDDkeee0880eeeeeeeeeeeeeFFFFFFFFFeeesDDDDDneee:   FFFFFFeeexDDDDDAreee2=0eeeerADDDDAeee00eeiDDDDDVeee3  FFeeeemDDDDBeee<+  FF",
"FeeedDDDDAeee6  >eeegDDDDneee.:eeebDDDDDgeee;2eeepDDDDDyeew9eerDDDDZeee<   +9ee042:%@   @eeefDDDDceee-  0eeuDDDDZeee3 -eeebDDDDDfeeeeeeeeeeeeeeeeeeeeFFFFFFFFFeeehDDDDDxeee=   FFFFFFeeefDDDDDDzeeeeeeeeeevDDDDDceee>9eerDDDDDDreeqo FFeeeeADDDDzeee&   FF",
"FeeepDDDDDueee-:eeeeBDDDDdeee%2eeeNDDDDDveeeeeeeebDDDDCeee46eeeDDDDDree0   3eeeeeeeeew93>eeelDDDDkeee%  qeeaDDDDNeee> >eeeNDDDDDpeeeeeeeeeeeeeeeeeeeeFFFFFFFFFeeezDDDDDjeee$   FFFFFFeeeuDDDDDDSseeeeeeeebDDDDDDueee#6eeeDDDDDDheee0.9eeeejDDDDDueee@   FF",
"FeeetDDDDDjeeeeeeeesDDDDVeee0+<eeeZDDDDDDseeeeeefDDDDDxeee;3eeeCDDDDdeee* >eeeeeeeeeeeee<eeecDDDDgeee@ @eeegDDDDbeee- 3eeeZDDDDDityttytyytyttyttreee3   FFFFFFeeebDDDDDdeeeO   FFFFFFeeeeZDDDDDDSheeeeeunDDDDDDveee9+3eeeZDDDDDZreeeeeeeeySDDDDMeee6    FF",
"FeeeeVDDDDSueeeeeeiSDDDDheee; ,eeeDDDDDZDCreeeesDDDDDDueee$;eeenDDDDceeee7eeeeiteeeeeeeeFeeemDDDDaeeq+ %eeelDDDDzeee% 6eeeDDDDDDDDDDDDDDDDDDDDDDbeee&   FFFFFFeeeNDDDDDieew    FFFFFFFeeecDDDDDDDDCvlbZDDDDDDDDueee% ;eeenDDDDDDneeeeeeeyBDDDDDseee-   FFF",
"FFeeexDDDDDNreeeeuADDDDVeeewO 7eeuDDDDZdDDDnfhNDDDDDDNeee6+%eeekDDDDDpeeeeeeesDDSBceeee*<eeeCDDDDtee0  -eeevDDDDgeee@ 0eeyDDDDDDDDDDDDDDDDDDDDDDleee%   FFFFFeeeeZDDDDDree9   FFFFFFFFeeeaDDDDDDDDDDDDDDDDDDDDveee9  %eeejDDDDDDDNpeeerfZDDDDDNeee7+   FFF",
"FFeeeaDDDDDDSbdkNDDDDDDaeee2 +eeesDDDDNemDDDDDDDDDDDDdeee- OeeeyDDDDDCreeeeeaADDDDkeee6+4eeeSDDDSeee6  >eeeMDDDDseee+ qeesDDDDDDDDDDDDDDDDDDDDDDheeeo   FFFFFeeeeDDDDDSeee5   FFFFFFFFeeeeVDDDDDDDDDDDDDDDDDDZteee*  +eeeiDDDDDDDDDZMVDDDDDDDDieee;    FFF",
"FFeeeeNDDDDDDDDDDDDDDDxeeew@ oeeehDDDDbeuDDDDDDDDDDDNeeew+  <eeenDDDDDZzptdbDDDDDBeeee% 0eetDDDDCeee3  3eeeCDDDDuee0 @eeehDDDDDDDDDDDDDDDDDDDDDDaeee+   FFFFFeeeuDDDDDBeee2   FFFFFFFFFeeehDDDDDDDDDDDDDDDDDDaeee9    0eeeBDDDDDDDDDDDDDDDDDDleee0+   FFFF",
"FFFeeedDDDDDDDDDDDDDDmeeee*  =eeezDDDDzeelDDDDDDDDDSieee:   =eeedDDDDDDDDDDDDDDDAyeee3  qeepDDDDmeee> +6eeeDDDDDeee6 #eeezDDDDDDDDDDDDDDDDDDDDDDyeew    FFFFFeeeaDDDDDneee:   FFFFFFFFFeeeeVDDDDDDDDDDDDDDDDleeeq$    FeeegDDDDDDDDDDDDDDDDDneeee=    FFFF",
"FFFeeeevDDDDDDDDDDDDMreee5   &eeebDDDDheerCDDDDDDDDgeee0+    eeeevDDDDDDDDDDDDDApeee0+ OeeefDDDDveee-  0eeyDDDDZeee3 -eeebDDDDDDDDDDDDDDDDDDDDDDeee6   FFFFFFeeehDDDDDxeee=   FFFFFFFFFeeeeiSDDDDDDDDDDDDDDkeeee&+    FeeeebDDDDDDDDDDDDDDDbeeee3     FFFF",
"FFFFeeeemDDDDDDDDDDxreee0O   2eeeNDDDDseeedDDDDDDDleeee=     FeeerVDDDDDDDDDDDVieeeq%  #eeekDDDDleee#  qeeaDDDDNeee> >eeeNDDDDDDDDDDDDDDDDDDDDDCeee<   FFFFFFeeelDDDDDjeee$   FFFFFFFFFFeeeeaZDDDDDDDDDDDDfeeee<     FFFeeerbDDDDDDDDDDDDDleeee8O    FFFFF",
"FFFFeeeeehCDDDDDSbaeeeewo    3eeeZDDDDueeeegSDDDCdeeee>     FFeeeercSDDDDDDDBheeeee&+  *eeegnbbnseee@ @eeeabbbnjeee& 3eeexbbbbnbbnbbbnbbbbnbbnbzeee.   FFFFFFeeehnbbnbaeeeO   FFFFFFFFFFFeeeerxADDDDDDDSvyeeee6O    FFFFeeeeefmSDDDDDDDAcyeeee0@    FFFFFF",
"FFFFFeeeeeepgkgareeeee7$     0eeeDDDDDeeeeeetghseeeee4+     FFFeeeeerphkkhdreeeeee&    ;eeeeeeeeeeeq  %eeeeeeeeeeee% 6eeeeeeeeeeeeeeeeeeeeeeeeeeeee&   FFFFFFeeeeeeeeeeeew    FFFFFFFFFFFFeeeeeeihlxzksreeeee3+     FFFFFeeeeeersgjljgieeeeee9o     FFFFFF",
"FFFFFFeeeeeeeeeeeeeee<O      eeeuDDDDZeeeeeeeeeeeeee3O     FFFFFeeeeeeeeeeeeeeeew*     3eeeeeeeeeee0  -eeeeeeeeeeeeo 9eeeeeeeeeeeeeeeeeeeeeeeeeeeeeX   FFFFFeeeeeeeeeeeee9   FFFFFFFFFFFFFFqeeeeeeeeeeeeeeee>      FFFFFFF0eeeeeeeeeeeeeeeee3+     FFFFFFF",
"FFFFFFF9eeeeeeeeeee0-       FeeesDDDDNeee7eeeeeeeeq>      FFFFFFF0eeeeeeeeeeeeq3O      weeeeeeeeeee6  >eeeeeeeeeeee+ qeeeeeeeeeeeeeeeeeeeeeeeeeeeeeo   FFFFFeeeeeeeeeeeee4   FFFFFFFFFFFFFF=6eeeeeeeeeeeee9%+     FFFFFFFFF>weeeeeeeeeeeee6#      FFFFFFFF",
"FFFFFFFF#>9qeeeq03%        FFeeehDDDDneee&#4weee0.@       FFFFFFFF%29eeeeee0<:O       FFFFF&-------%  #2FF;-------* +-;F<--------------------------+   FFFFFFFFF---------#   FFFFFFFFFFFFFFF $2,qeeeeeq02%       FFFFFFFFFFF+=30eeeeeeq6.$       FFFFFFFFF",
"FFFFFFFFF   O$@           FFFeeezDDDDzeee%+  @$++        FFFFFFFFFF  +@##@+          FFFFFF            FFF             FF+                             FFFFFFFFF             FFFFFFFFFFFFFFFF   +o$%%$+         FFFFFFFFFFFF     O$%$@          FFFFFFFFFF",
"FFFFFFFFFFF              FFFFeeevDDDDheeeo              FFFFFFFFFFFF                FFFFFFF            FFF            FF                              FFFFFFFFFF             FFFFFFFFFFFFFFFFF  +              FFFFFFFFFFFFFFF                 FFFFFFFFFFF",
"FFFFFFFFFFFF           FFFFFFeeeNDDDDseee+   F        FFFFFFFFFFFFFFFF            FFFFFFFFF            FFF            FF                              FFFFFFFFFF             FFFFFFFFFFFFFFFFFFF             FFFFFFFFFFFFFFFFFFF             FFFFFFFFFFFFF",
"FFFFFFFFFFFFFFF    FFFFFFFFFeeeeZDDDDuee0    FFF   FFFFFFFFFFFFFFFFFFFFFF     FFFFFFFFFFFFFFFFFFFFFFFFFFFFFFFFFFFFFFFFFFFFFFFFFFFFFFFFFFFFFFFFFFFFFFFFFFFFFFFFFFFFFFFFFFFFFFFFFFFFFFFFFFFFFFFFFFFFFF      FFFFFFFFFFFFFFFFFFFFFFFFF      FFFFFFFFFFFFFFFFF",
"FFFFFFFFFFFFFFFFFFFFFFFFFFFFeeeeDDDDDeee9    FFFFFFFFFFFFFFFFFFFFFFFFFFFFFFFFFFFFFFFFFFFFFFFFFFFFFFFFFFFFFFFFFFFFFFFFFFFFFFFFFFFFFFFFFFFFFFFFFFFFFFFFFFFFFFFFFFFFFFFFFFFFFFFFFFFFFFFFFFFFFFFFFFFFFFFFFFFFFFFFFFFFFFFFFFFFFFFFFFFFFFFFFFFFFFFFFFFFFFFFFFFFF",
"FFFFFFFFFFFFFFFFFFFFFFFFFFFFeeeuDDDDAeee3    FFFFFFFFFFFFFFFFFFFFFFFFFFFFFFFFFFFFFFFFFFFFFFFFFFFFFFFFFFFFFFFFFFFFFFFFFFFFFFFFFFFFFFFFFFFFFFFFFFFFFFFFFFFFFFFFFFFFFFFFFFFFFFFFFFFFFFFFFFFFFFFFFFFFFFFFFFFFFFFFFFFFFFFFFFFFFFFFFFFFFFFFFFFFFFFFFFFFFFFFFFFFF",
"FFFFFFFFFFFFFFFFFFFFFFFFFFFFeeeaDDDDNeee2    FFFFFFFFFFFFFFFeeeeeeFFFFFFFFFFFFFFFFFFFFFFFFFFFFFFeeFFFFFFFFFFFFeeFFFFFeeeeeeFFFFFFFFFFFFFFFFeFFFFFFFeeeeFFFFFFFFFFFFFFFFFFFFFFFFFFFFFFFFFFFFFFFFFFFFFFFFeFFeeFFFFFFFFFFFFFFFFFFFFeeeeFFFFFFFFFFFeFFFFFFFFFF",
"FFFFFFFFFFFFFFFFFFFFFFFFFFFFeeehDDDDbeee&    FFFFFFFFFFFFFFeeFFFFFFFFFFFFFeeFFFFFFFFFFFFFFFFFFFFeeFFFFFFFFFFFFeeFFFFFFFeeFFFFFFFFFFFFFFFFFeeFFFFFFeeFFeeFFFFFFFFFFFFFFFFFFFFFFFeeFFFFFFFFFFFFFFFFFFFFFeeFFFFFFFFFFFFFFFFFFFFFFFeeFFeeFFFFFFFFFeeFFFFFFFFFF",
"FFFFFFFFFFFFFFFFFFFFFFFFFFFFeeelDDDDxeee=   FFFFFFFFFFFFFFFeeFFFFFFeFFFeFeeeeFFeeFFFFeFeeFFFFeeFeeFFeeeFFFFeeFeeFFFFFFFeFFFFeeeeFFFFeeeFFFeeFFFFFeeFFFeeFFeeeeFFFeFeeeFFFeeeFFeeeeFeFeeFeFFFeFFFeeeFFeeeFFeFFFeeeFFFeeFeeFFFFFFeeFFFFFFFeeFFFeeeFFFFFFFFFF",
"FFFFFFFFFFFFFFFFFFFFFFFFFFFFeeegcvccaeeeo   FFFFFFFFFFFFFFFeeeeeeFFeeFeeFFeeFFeeFeFFeeeFeeFFeeFeeeFeeFeeFFeeFeeeFFFFFFeeFFFeeeeeFFFeeFeeFFeeFFFFFeFFFFFFFeeeeeFFFeeFeeFFeeFeeFeeeFFeeeFeeFFeeFFeeFeeFeeeFeeFFeeFeeFFeeeeeeFFFFFeeeeFFFFeeFeFFeeeFFFFFFFFFF",
"FFFFFFFFFFFFFFFFFFFFFFFFFFFFeeeeeeeeeeee+   FFFFFFFFFFFFFFFeeeeeeFFFeeeFFFeFFeeFFeeFeeFFeeFeeFFeeFFeFFFeFeeFFeeFFFFFFFeeFFFeeFFeeFeeFFFeFFeFFFFFeeFFFFFFFeeFFeeFFeFFeeFFeeFFFFFeFFeeFFFeeFFeeFeeFFFFFeeFFeeFeeFFFeFFeeFFeeFFFFFFFeeeFFeeFFeeFeeFFFFFFFFFFF",
"FFFFFFFFFFFFFFFFFFFFFFFFFFFeeeeeeeeeeee0    FFFFFFFFFFFFFFFeFFFFFFFFeeFFFFeFFeeeeeeFeeFFeeFeeFFeeFeeeeeeFeeFFeeFFFFFFFeeFFFeFFFeeFeeFFeeFFeFFFFFeeFFFFeFFeFFFeeFeeFFeeFFFeeeFFeeFFeeFFFeeFFeeFeeFFFFFeeFFeeFeeFFeeFFeFFFeFFFFFFFFFFeeFeeeeeeFeeFFFFFFFFFFF",
"FFFFFFFFFFFFFFFFFFFFFFFFFFFeeeeeeeeeeee9    FFFFFFFFFFFFFFeeFFFFFFFeeeeFFeeFFeeFFFFFeeFFeFFeeFFeeFeeFFFFFeeFFeeFFFFFFFeeFFFeFFFeeFeeFFeeFeeFFFFFFeeFFeeFFeFFFeeFeeFFeeFFFFFeeFeeFFeeFFFeFFeeFFeeFFeFFeeFFeFFeeFFeeFeeFFeeFFFFFeeFFFeeFeeFFFFFeeFFFFFFFFFFF",
"FFFFFFFFFFFFFFFFFFFFFFFFFFFFFFF&=======#    FFFFFFFFFFFFFFeeeeeeeFeeFeeFFeeeFFeeeeFFeFFFeFFeeeeeeFFeeeeFFeeeeeeFFFFFFFeFFFFeeeeeFFeeeeeFFeeFFFFFFeeeeeFFFeeeeeFFeeFFeeFeeeeeFFeeeFeFFFFeeeeeFFeeeeeFFeeFFeFFFeeeeFFeeFFeeFFFFFFeeeeeFFeeeeeFFeeFFFFFFFFFFF",
"FFFFFFFFFFFFFFFFFFFFFFFFFFFFFFF             FFFFFFFFFFFFFFFeeeeeFFeFFFeFFFeeFFFeFFFFeFFFeFFFFeFeFFFFFeFFFFFeFFFFFFFFFFeFFFFFFeFFFFFFeeFFFFFFFFFFFFFeeFFFFFFeFFFFeFFFeFFFFeFFFFFeFFeFFFFFeFFFFFFFeFFFFFeFFeFFFFeeFFFFFFFFFFFFFFFFFeFFFFFFeFFFFFeFFFFFFFFFFF",
"FFFFFFFFFFFFFFFFFFFFFFFFFFFFFFF             FFFFFFFFFFFFFFFFFFFFFFFFFFFFFFFFFFFFFFFFFFFFFFFFFFFFFFFFFFFFFFFFFFFFFFFFFFFFFFFFFFFFFFFFFFFFFFFFFFFFFFFFFFFFFFFFFFFFFFFFFFFFFFFFFFFFFFFFFFFFFFFFFFFFFFFFFFFFFFFFFFFFFFFFFFFFFFFFFFFFFFFFFFFFFFFFFFFFFFFFFFFFFF",
"FFFFFFFFFFFFFFFFFFFFFFFFFFFFFFF            FFFFFFFFFFFFFFFFFFFFFFFFFFFFFFFFFFFFFFFFFFFFFFFFFFFFFFFFFFFFFFFFFFFFFFFFFFFFFFFFFFFFFFFFFFFFFFFFFFFFFFFFFFFFFFFFFFFFFFFFFFFFFFFFFFFFFFFFFFFFFFFFFFFFFFFFFFFFFFFFFFFFFFFFFFFFFFFFFFFFFFFFFFFFFFFFFFFFFFFFFFFFFFF"
};
